<svg xmlns="http://www.w3.org/2000/svg" width="151.141" height="115.851" viewBox="0 0 151.141 115.851">
  <g id="icono_intermedia" transform="translate(-6877 -2056)">
    <path id="Trazado_24272" data-name="Trazado 24272" d="M-8.232,0H133.141L108.565,104.447-18,115.851Z" transform="translate(6895 2056)" fill="#00dfd3"/>
    <g id="building-4-line" transform="translate(6919.673 2079.097)">
      <path id="Shape" d="M49.408,44.917H0V40.426H4.491V2.246A2.248,2.248,0,0,1,6.737,0H42.671a2.248,2.248,0,0,1,2.246,2.246v38.18h4.491v4.491ZM8.983,4.491V40.426H40.426V4.491Zm24.706,29.2H26.95V29.2h6.739v4.493Zm-11.23,0H15.721V29.2h6.737v4.493ZM33.689,24.7H26.95V20.213h6.739V24.7Zm-11.23,0H15.721V20.213h6.737V24.7Zm11.23-8.983H26.95V11.23h6.739v4.491Zm-11.23,0H15.721V11.23h6.737v4.491Z" transform="translate(2.756 5.511)" fill="#fff"/>
    </g>
  </g>
</svg>
