<svg xmlns="http://www.w3.org/2000/svg" width="151.141" height="115.851" viewBox="0 0 151.141 115.851">
  <g id="icono_avanzada" transform="translate(-7053 -2056)">
    <path id="Trazado_24273" data-name="Trazado 24273" d="M-8.232,0H133.141L108.565,104.447-18,115.851Z" transform="translate(7071 2056)" fill="#00dfd3"/>
    <path id="Shape" d="M45.673,43.27H2.4a2.406,2.406,0,0,1-2.4-2.4V22.805a2.4,2.4,0,0,1,.824-1.813l8.79-7.665V2.4A2.407,2.407,0,0,1,12.02,0H45.673a2.406,2.406,0,0,1,2.4,2.4V40.866A2.406,2.406,0,0,1,45.673,43.27ZM14.424,4.807V9.922A2.4,2.4,0,0,1,16,10.515L28.022,20.992a2.4,2.4,0,0,1,.824,1.813V38.463H43.27V4.807Zm-2.4,24.039h4.807v9.617h7.211V23.9l-9.615-8.386L4.807,23.9V38.463H12.02V28.846Zm26.442,4.809H33.655V28.846h4.807v4.809Zm0-9.617H33.655V19.231h4.807v4.807Zm0-9.615H33.655V9.615h4.807v4.809Zm-9.617,0H24.039V9.615h4.807v4.809Z" transform="translate(7100.895 2087.187)" fill="#fff"/>
  </g>
</svg>
